<svg id="Scalibility" xmlns="http://www.w3.org/2000/svg" viewBox="0 0 195 130"><defs><style>.cls-1,.cls-3{fill:none;stroke:#40bded;}.cls-1,.cls-2,.cls-3{stroke-miterlimit:10;}.cls-2{fill:#12364c;stroke:#12364c;}.cls-3{stroke-linecap:round;stroke-dasharray:0 3;}.cls-4{fill:#40bded;}</style></defs><title>Artboard 1</title><line class="cls-1" x1="72.09" y1="64.73" x2="102.22" y2="64.73"/><line class="cls-1" x1="89.11" y1="64.73" x2="112.52" y2="44.7"/><line class="cls-1" x1="121.87" y1="64.73" x2="91.74" y2="64.73"/><line class="cls-1" x1="81.53" y1="45.19" x2="112.52" y2="45.19"/><line class="cls-1" x1="81.53" y1="83.93" x2="112.52" y2="83.93"/><line class="cls-1" x1="88.92" y1="64.73" x2="112.52" y2="84.57"/><path class="cls-1" d="M81.53,84.12c-.83-.86.48-39.41-.09-39.41l23.41,20L81.53,84.12"/><polygon class="cls-1" points="96.23 39.65 122.25 64.73 98.11 90.18 72.09 64.73 96.23 39.65"/><line class="cls-1" x1="112.79" y1="84.12" x2="112.79" y2="44.7"/><circle class="cls-1" cx="97.15" cy="64.65" r="25.02"/><circle class="cls-2" cx="81.53" cy="45.19" r="1.6"/><circle class="cls-2" cx="112.79" cy="45.19" r="1.6"/><circle class="cls-2" cx="96.32" cy="39.57" r="1.6"/><circle class="cls-2" cx="112.79" cy="84.12" r="1.6"/><circle class="cls-2" cx="81.53" cy="84.12" r="1.6"/><circle class="cls-2" cx="88.92" cy="64.73" r="1.6"/><circle class="cls-2" cx="72.09" cy="64.73" r="1.6"/><circle class="cls-2" cx="104.86" cy="64.73" r="1.6"/><circle class="cls-2" cx="122.25" cy="64.73" r="1.6"/><circle class="cls-2" cx="98" cy="89.73" r="1.6"/><line class="cls-1" x1="147.23" y1="30.6" x2="132.68" y2="30.6"/><line class="cls-1" x1="141.9" y1="39.96" x2="127.71" y2="20.93"/><line class="cls-1" x1="123.19" y1="30.6" x2="137.74" y2="30.6"/><line class="cls-1" x1="141.9" y1="21.16" x2="127.71" y2="40.18"/><polygon class="cls-1" points="135.57 18.49 123.01 30.59 134.67 42.88 147.23 30.59 135.57 18.49"/><circle class="cls-1" cx="135.13" cy="30.56" r="12.08"/><circle class="cls-2" cx="142.67" cy="21.16" r="0.77"/><circle class="cls-2" cx="127.58" cy="21.16" r="0.77"/><circle class="cls-2" cx="135.53" cy="18.45" r="0.77"/><circle class="cls-2" cx="127.58" cy="39.96" r="0.77"/><circle class="cls-2" cx="142.67" cy="39.96" r="0.77"/><circle class="cls-2" cx="147.23" cy="30.6" r="0.77"/><circle class="cls-2" cx="134.88" cy="30.6" r="0.77"/><circle class="cls-2" cx="123.01" cy="30.6" r="0.77"/><circle class="cls-2" cx="134.72" cy="42.67" r="0.77"/><circle class="cls-1" cx="155.1" cy="21.37" r="4.2"/><line class="cls-1" x1="155.1" y1="17.17" x2="155.1" y2="25.58"/><circle class="cls-1" cx="135.77" cy="8.15" r="4.2"/><line class="cls-1" x1="131.56" y1="8.15" x2="139.97" y2="8.15"/><circle class="cls-1" cx="39.64" cy="107.58" r="4.2"/><line class="cls-1" x1="39.64" y1="111.78" x2="39.64" y2="103.37"/><circle class="cls-1" cx="57.97" cy="120.8" r="4.2"/><line class="cls-1" x1="53.77" y1="120.8" x2="62.17" y2="120.8"/><circle class="cls-1" cx="156.83" cy="108.58" r="4.2"/><line class="cls-1" x1="156.83" y1="112.78" x2="156.83" y2="104.37"/><circle class="cls-1" cx="137.5" cy="121.8" r="4.2"/><line class="cls-1" x1="141.7" y1="121.8" x2="133.29" y2="121.8"/><line class="cls-3" x1="125.17" y1="40.98" x2="115.7" y2="44.03"/><path class="cls-4" d="M135.17,15.25a.65.65,0,0,1,.35-.86h0a.66.66,0,0,1,.84.35h0a.65.65,0,0,1-.35.84h0a.58.58,0,0,1-.26.05h0A.62.62,0,0,1,135.17,15.25Z"/><path class="cls-4" d="M150.5,27.87a.65.65,0,0,1,.35-.86h0a.66.66,0,0,1,.84.35h0a.65.65,0,0,1-.35.84h0a.58.58,0,0,1-.26.05h0A.62.62,0,0,1,150.5,27.87Z"/><path class="cls-4" d="M44.24,102.88a.65.65,0,0,1-.86-.35h0a.66.66,0,0,1,.35-.84h0a.65.65,0,0,1,.84.35h0a.58.58,0,0,1,.05.26h0A.62.62,0,0,1,44.24,102.88Z"/><path class="cls-4" d="M58.52,114.67a.65.65,0,0,1-.86-.35h0a.66.66,0,0,1,.35-.84h0a.65.65,0,0,1,.84.35h0a.58.58,0,0,1,.05.26h0A.62.62,0,0,1,58.52,114.67Z"/><line class="cls-3" x1="69.11" y1="41.17" x2="80.11" y2="44.17"/><line class="cls-3" x1="78.61" y1="85.67" x2="68.51" y2="88.12"/><line class="cls-3" x1="115.6" y1="85.67" x2="126.6" y2="87.67"/><line class="cls-1" x1="71.33" y1="30.63" x2="56.78" y2="30.63"/><line class="cls-1" x1="66" y1="39.99" x2="51.81" y2="20.96"/><line class="cls-1" x1="47.3" y1="30.63" x2="61.84" y2="30.63"/><line class="cls-1" x1="66" y1="21.2" x2="51.81" y2="40.21"/><polygon class="cls-1" points="59.68 18.52 47.12 30.63 58.77 42.92 71.33 30.63 59.68 18.52"/><circle class="cls-1" cx="59.23" cy="30.6" r="12.08"/><circle class="cls-2" cx="66.77" cy="21.2" r="0.77"/><circle class="cls-2" cx="51.68" cy="21.2" r="0.77"/><circle class="cls-2" cx="59.63" cy="18.48" r="0.77"/><circle class="cls-2" cx="51.68" cy="39.99" r="0.77"/><circle class="cls-2" cx="66.77" cy="39.99" r="0.77"/><circle class="cls-2" cx="71.33" cy="30.63" r="0.77"/><circle class="cls-2" cx="58.98" cy="30.63" r="0.77"/><circle class="cls-2" cx="47.11" cy="30.63" r="0.77"/><circle class="cls-2" cx="58.82" cy="42.7" r="0.77"/><line class="cls-3" x1="40.7" y1="24" x2="46.34" y2="29.65"/><line class="cls-1" x1="38.43" y1="16.26" x2="38.43" y2="24.66"/><circle class="cls-1" cx="38.43" cy="20.46" r="4.2"/><line class="cls-3" x1="58.98" y1="11.28" x2="59.23" y2="18.51"/><line class="cls-1" x1="61.96" y1="7.24" x2="53.56" y2="7.24"/><circle class="cls-1" cx="57.76" cy="7.24" r="4.2"/><line class="cls-3" x1="147.27" y1="98.13" x2="154.18" y2="105.31"/><line class="cls-3" x1="134.76" y1="111.02" x2="135.83" y2="117.6"/><line class="cls-1" x1="147.27" y1="98.16" x2="132.72" y2="98.16"/><line class="cls-1" x1="141.94" y1="107.52" x2="127.75" y2="88.49"/><line class="cls-1" x1="123.24" y1="98.16" x2="137.79" y2="98.16"/><line class="cls-1" x1="141.94" y1="88.73" x2="127.75" y2="107.74"/><polygon class="cls-1" points="135.62 86.05 123.06 98.16 134.71 110.45 147.27 98.16 135.62 86.05"/><circle class="cls-1" cx="135.17" cy="98.13" r="12.08"/><circle class="cls-2" cx="142.71" cy="88.73" r="0.77"/><circle class="cls-2" cx="127.62" cy="88.73" r="0.77"/><circle class="cls-2" cx="135.58" cy="86.02" r="0.77"/><circle class="cls-2" cx="127.62" cy="107.52" r="0.77"/><circle class="cls-2" cx="142.71" cy="107.52" r="0.77"/><circle class="cls-2" cx="147.27" cy="98.16" r="0.77"/><circle class="cls-2" cx="134.92" cy="98.16" r="0.77"/><circle class="cls-2" cx="123.06" cy="98.16" r="0.77"/><circle class="cls-2" cx="134.76" cy="110.23" r="0.77"/><line class="cls-1" x1="71.23" y1="98.71" x2="56.68" y2="98.71"/><line class="cls-1" x1="65.9" y1="108.07" x2="51.71" y2="89.04"/><line class="cls-1" x1="47.19" y1="98.71" x2="61.74" y2="98.71"/><line class="cls-1" x1="65.9" y1="89.28" x2="51.71" y2="108.29"/><polygon class="cls-1" points="59.57 86.6 47.01 98.71 58.67 111 71.23 98.71 59.57 86.6"/><circle class="cls-1" cx="59.13" cy="98.67" r="12.08"/><circle class="cls-2" cx="66.67" cy="89.27" r="0.77"/><circle class="cls-2" cx="51.58" cy="89.27" r="0.77"/><circle class="cls-2" cx="59.53" cy="86.56" r="0.77"/><circle class="cls-2" cx="51.58" cy="108.07" r="0.77"/><circle class="cls-2" cx="66.67" cy="108.07" r="0.77"/><circle class="cls-2" cx="71.23" cy="98.71" r="0.77"/><circle class="cls-2" cx="58.88" cy="98.71" r="0.77"/><circle class="cls-2" cx="47.01" cy="98.71" r="0.77"/><circle class="cls-2" cx="58.72" cy="110.78" r="0.77"/></svg>